<svg xmlns="http://www.w3.org/2000/svg" viewBox="0 0 876 346"><path fill="#ffffff" d="M82.355 23.342c7.78-6.937 15.813-13.106 25.798-15.236 22.695-4.84 41.322 3.035 52.03 27.702 6.088 14.022 8.053 28.96 7.586 43.964-1.478 47.452-3.497 94.888-5.49 142.322-.644 15.293-1.858 30.561-1.855 46.272.86-1.625 1.74-3.24 2.58-4.877 27.143-52.942 55.444-105.24 87.03-155.695 10.176-16.254 21.054-32.027 35.641-44.78 14.487-12.665 31.03-21.25 50.342-23.25 25.239-2.613 44.787 8.523 56.225 31.195 7.265 14.4 10.798 29.824 10.66 45.752-.195 22.31-1.461 44.613-2.411 66.912-1.03 24.138-2.223 48.269-3.334 72.403-.019.404.101.814.273 2.072 1.151-2.078 1.933-3.46 2.688-4.856 24.65-45.572 48.774-91.441 74.179-136.59 11.938-21.216 27.312-40.347 46.504-55.706 17.269-13.82 36.788-22.588 59.55-21.966 31.532.861 53.862 18.956 61.622 49.802 5.33 21.185 4.946 42.632 2.407 64.056-3.046 25.684-5.415 51.409-4.099 77.26.58 11.382 1.843 22.994 4.864 33.93 5.615 20.324 20.885 27.468 40.369 26.572 20.83-.958 37.052-11.828 52.163-24.734 19.058-16.277 33.61-36.373 47.321-57.117 15.332-23.196 28.38-47.643 39.978-72.896 5.823-12.679 17.082-18.12 28.824-13.746 13.791 5.136 19.115 19.545 13.718 31.911-18.806 43.086-43.686 82.556-74.082 118.397-19.982 23.562-42.831 43.987-71.734 56.081-26.126 10.932-52.96 11.522-79.093.245-20.706-8.936-33.423-25.85-40.586-46.884-8.525-25.03-9.212-51.053-7.982-77.053 1.124-23.77 4.046-47.454 5.22-71.223.518-10.513-.219-21.372-2.366-31.66-2.816-13.5-11.165-18.952-27.806-15.186-8.535 1.932-15.243 7.308-21.344 13.3-18.937 18.6-33.756 40.376-46.534 63.388-20.556 37.018-40.083 74.606-60.243 111.846-9.09 16.791-18.395 33.478-28.125 49.902-4.253 7.178-10.111 13.404-18.096 16.692-20.119 8.285-40.281-2.202-43.356-24.144-2.105-15.02-1.448-30.545-.88-45.801 1.825-49.117 4.253-98.21 6.252-147.321.283-6.95.199-14.08-1.076-20.87-.903-4.813-3.413-9.73-6.445-13.636-3.84-4.947-9.632-5.988-15.861-4.395-10.94 2.798-19.08 9.829-25.318 18.497-12.128 16.848-24.038 33.926-34.843 51.638-26.138 42.845-49.862 87.044-72.477 131.855-5.284 10.47-11.72 20.48-18.616 29.983-6.849 9.435-16.737 15.362-28.259 17.417-22.486 4.012-39.691-9.922-40.583-33.205-.49-12.789.36-25.643.917-38.454 2.398-55.266 5.126-110.518 7.202-165.795.416-11.057-1.332-22.218-2.43-33.296-.298-3.008-1.869-5.89-3.319-10.21-3.73 3.792-6.857 6.462-9.379 9.615-15.512 19.392-26.037 41.63-36.119 64.093-3.602 8.026-6.999 16.147-10.391 24.265-3.25 7.776-9 12.686-17.036 14.815-17.227 4.566-32.971-10.721-27.755-27.83 3.51-11.516 8.907-22.512 14.053-33.462C41.14 79.854 54.327 54.685 73.116 32.956c2.826-3.269 5.977-6.257 9.239-9.614m77.117 246.278.145-.327s-.285.07-.145.327Z"/></svg>
