<svg xmlns="http://www.w3.org/2000/svg" viewBox="0 0 1375 339"><path fill="#ffffff" d="M419.344 302.535c6.799 12.032 19.595 12.4 30.079 5.982 9.278-5.68 16.366-13.653 22.304-22.566 11.154-16.738 21.92-33.726 25.809-53.963.277-1.441.443-2.904.663-4.372-4.61-.453-8.98-.43-13.128-1.38-9.34-2.138-13.277-8.466-11.437-17.787 2.368-11.994 7.677-22.59 15.636-31.847 8.168-9.498 18.352-8.586 23.187 2.959 3.082 7.358 3.924 15.663 5.677 23.564.35 1.574.277 3.242.426 5.236 1.683 0 2.972-.008 4.262 0 5.486.038 11.012-.33 16.45.195 16.968 1.638 24.889 11.187 23.366 28.263-1.005 11.264-2.693 22.465-3.833 33.719-.552 5.45-.901 10.967-.736 16.436.678 22.44 21.325 33.314 40.346 21.226 12.03-7.646 20.978-18.405 28.616-30.222 4.774-7.386 9.117-15.07 13.32-22.803 3.598-6.622 6.785-13.471 10.04-20.275 7.14-14.923 17.033-27.084 33.44-32.241 19.769-6.213 40.142 4.041 45.49 23.003 2.885 10.227.438 19.834-5.956 28.214-3.65 4.785-9.091 5.558-13.186 2.551-4.16-3.055-4.686-7.857-1.385-13.225 3.129-5.086 4.806-10.414 1.52-15.957-3.365-5.677-8.838-7.928-15.23-7.802-11.024.218-18.576 6.81-23.648 15.417-13 22.062-14.244 45.052-1.992 67.905 7.182 13.396 19.352 18.639 34.21 17.914 21.035-1.026 37.588-11.416 51.86-25.848 12.256-12.392 21.841-26.759 29.113-42.643 2.45-5.351 7.373-7.366 12.213-5.234 4.864 2.142 6.847 7.788 4.324 13.049-11.068 23.08-25.317 43.778-45.8 59.589-14.97 11.555-31.742 18.574-50.897 19.3-29.217 1.107-51.026-15.005-58.414-43.33-.793-3.036-1.416-6.117-2.084-9.03-6.128 7.678-11.722 15.789-18.43 22.84-10.419 10.95-22.1 20.223-38.065 21.872-23.074 2.382-41.36-10.787-46.471-33.589-3.25-14.5-.684-28.78 1.393-43.113.88-6.076 1.463-12.227 1.67-18.361.226-6.677-2.32-9.15-8.842-9.308-4.83-.118-9.666-.026-14.5-.028h-3.122c-2.203 8.225-3.664 16.604-6.674 24.384-10.133 26.195-23.888 50.158-46.094 68.191-11.31 9.184-24.106 14.257-38.942 10.257-13.151-3.545-20.61-13.291-25.992-25.047-.682-1.49-1.31-3.006-2.191-5.032-6.26 9.924-13.504 18.222-23.247 24.1-22.432 13.535-50.063 2.193-56.441-23.22-.427-1.7-.885-3.392-1.18-4.522-7.758 7.78-15.24 16.006-23.504 23.353-7.151 6.357-15.7 10.605-25.505 11.523-21.138 1.978-35.27-10.241-37.883-31.95-1.912-15.894.288-31.553 1.307-47.31.275-4.259-.006-8.7-.933-12.856-1.257-5.64-5.216-7.972-10.49-5.818-3.995 1.632-7.915 4.31-10.877 7.457-13.045 13.857-21.052 30.995-29.974 47.507-5.762 10.666-11.243 21.484-17.028 32.137a58.972 58.972 0 0 1-6.396 9.484c-3.354 4.04-7.928 5.482-13.041 4.217-5.05-1.25-8.261-4.878-8.633-9.853-.58-7.758-.579-15.59-.305-23.373.64-18.126 1.68-36.238 2.353-54.363.189-5.104.69-11.077-5.32-13.343-6.043-2.276-10.493 1.98-13.339 6.35a1297.063 1297.063 0 0 0-29.176 46.949c-5.493 9.276-9.84 19.225-15.207 28.58-2.602 4.534-5.894 8.916-9.729 12.434-4.597 4.216-10.517 4.984-16.286 2.082-5.417-2.723-7.046-7.839-6.836-13.431.932-24.776 2.145-49.541 2.992-74.32.234-6.829-.447-13.69-.708-20.536l-1.925-.382c-1.377 1.53-3.123 2.863-4.071 4.625-5.57 10.357-11.04 20.771-16.356 31.26-1.858 3.665-3.583 7.124-8.182 7.888-6.505 1.082-12.811-4.735-10.43-10.74 6.92-17.448 13.971-35.087 29.01-47.531 10.959-9.068 24.808-5.438 28.386 8.246 2.513 9.61 2.665 20.06 2.464 30.108-.376 18.79-1.776 37.561-2.73 56.34-.022.436.186.882.532 2.39 2.766-5.211 4.993-9.717 7.494-14.064 10.27-17.855 20.457-35.763 31.026-53.44 4.573-7.65 10.777-13.98 18.962-17.993 17.566-8.61 33.171-.886 36.393 18.436 1.11 6.657 1.138 13.577.93 20.354-.428 13.952-1.347 27.888-1.143 42.164 2.459-4.735 4.726-9.581 7.41-14.185 10.029-17.204 19.864-34.536 30.456-51.389 4.812-7.657 12.053-13.263 20.647-16.755 18.331-7.449 35.829 2.188 37.552 21.878 1.018 11.64-.733 23.509-.971 35.28-.158 7.8-.339 15.653.37 23.401 1.232 13.447 11.042 19.31 23.805 14.75 8.574-3.064 15.183-8.876 21.016-15.593 10.992-12.659 18.196-27.67 26.553-42.046 12.2-20.988 27.357-39.385 53.367-44.281 16.204-3.05 30.691.608 43.595 10.653 4.454 3.467 5.597 8.242 3.251 12.342-2.207 3.856-5.565 5.618-10.038 4.482-1.243-.316-2.6-.824-3.524-1.663-15.006-13.635-38.413-10.202-52.447 2.681-16.27 14.936-21.574 33.937-18.307 55.343 1.21 7.92 5.58 14.231 13.912 16.669 9.035 2.642 16.445-.986 22.821-6.778 10.47-9.51 16.043-21.817 18.832-35.5.465-2.282.662-4.632 1.282-6.868 1.236-4.447 5.4-7.312 9.749-6.942 4.08.347 7.404 3.707 8.054 8.252 1.315 9.202 2.243 18.479 4.031 27.587.842 4.29 3.303 8.264 5.245 12.68m71.832-93.556h10.115l-2.499-16.378-2.535-.256c-1.967 5.47-3.933 10.939-5.08 16.634ZM1367 277s-19.7 9.881-34.589 2.888c-13.138-6.17-22.395-16.383-30.181-29.08-2.193 7.054-3.871 13.707-6.31 20.068-7.496 19.558-16.894 38.04-32.659 52.434-12.25 11.184-20.39 10.891-32.2-.865-11.116-11.064-17.614-24.794-22.567-40.06-3.416 5.118-6.492 9.986-9.825 14.671-9.07 12.752-19.638 23.87-33.97 30.884-35.532 17.387-76.74-2.685-85.105-42.067-3.302 4.84-6.33 9.34-9.42 13.799-6.8 9.808-14.87 18.308-25.106 24.645-17.257 10.683-38.611 7.806-50.906-8.39-6.316-8.32-10.256-18.452-15.2-27.803-.837-1.584-1.318-3.357-1.917-4.922-5.448 8.821-10.496 17.723-16.266 26.128-5.332 7.765-12.202 14.175-21.236 17.536-20.938 7.79-41.911-2.975-47.434-24.828-8.826-34.928 9.915-75.788 43.344-89.398 4.547-1.851 9.541-2.773 14.418-3.592 4.908-.825 9.725-.429 13.073 4.544-.704-6.842-1.494-13.677-2.096-20.528-3.416-38.927-3.29-77.811 2.255-116.543 2.522-17.618 5.72-35.255 14.008-51.218 3.596-6.929 8.359-13.814 14.178-18.905 10.948-9.58 26.052-6.555 34.092 5.621 5.366 8.127 7.55 17.331 8.593 26.815 3.474 31.607-.24 62.72-6.45 93.691-8.226 41.026-21.29 80.52-36.885 119.262-1.073 2.665-1.215 6.137-.6 8.977 3.17 14.657 7.167 29.075 16.204 41.448 8.093 11.08 20.155 13.11 31.456 5.151 10.261-7.225 17.88-16.962 24.08-27.666 7.64-13.194 14.538-26.727 19.396-41.349 5.199-15.644 14.983-27.463 32.365-30.516 20.17-3.543 37.134 12.165 36.59 33.758-.44 17.43-8.566 31.283-21.21 42.462-6.911 6.11-14.895 11.007-22.748 16.707 5.622 7.7 13.576 12.5 23.451 14.154 20.972 3.513 36.319-6.109 49.142-21.347 10.158-12.071 17.585-25.866 23.553-40.311 1.986-4.805.697-10.865 1.64-16.222 1.286-7.315 2.91-14.618 5.08-21.715 1.717-5.618 6.811-7.82 11.865-6.093 4.663 1.593 6.737 6.927 5.035 12.426-8.802 28.431-4.293 55.523 10.508 80.514 9.287 15.68 13.257 12.89 21.831 1.005 19.543-27.086 29.467-57.45 28.515-91.09-.2-7.05 2.647-10.987 8.2-11.473 4.991-.436 8.115 2.296 10.081 7.693 4.026 11.044 7.49 22.439 12.932 32.769 3.75 7.116 9.719 13.542 15.962 18.762 12.156 10.162 27.12 6.342 34.025-7.647.771-1.563 2.145-2.828 3.745-3.924 2.767 2.099 2.828 2.23 3.263 8.74.117 1.746-1.964 15.456-4 17-1093.432 829.622-4 3-4 3Zm-356.114-152.805c4.23-23.978 7.207-48.112 5.92-72.478-.484-9.16-2.513-18.38-5.016-27.24-1.766-6.257-7.573-7.048-12.009-2.202-2.416 2.64-4.396 5.879-5.857 9.165-9.46 21.279-12.416 44.074-14.827 66.905-2.733 25.871-2.953 51.835-1.058 77.785 1.092 14.949 2.54 29.871 3.828 44.806 13.014-31.168 22.534-63.065 29.019-96.741M908.518 279.192c.217 5.125-.109 10.346.783 15.35 1.275 7.162 4.698 13.174 12.337 15.508 7.792 2.38 14.476.166 20.026-5.426 2.788-2.81 5.642-5.831 7.45-9.288 6.749-12.91 13.106-26.027 19.513-39.114.54-1.105.66-2.611.464-3.85-1.743-11.044-3.601-22.069-5.426-33.1-2.165 6.403-7.574 7.457-13 8.64-13.179 2.877-23.95 9.519-31.773 20.667-6.262 8.925-9.513 18.895-10.374 30.613m208.04-7.133c8.604-8.402 14.177-18.277 15.09-30.51.581-7.798-3.071-14.271-9.333-15.611-5.727-1.225-10.838.272-15.159 4.305-11.27 10.52-15.662 38.149-8.103 54.545 5.766-4.15 11.38-8.19 17.505-12.73Z"/></svg>
